<svg width="162" height="59" viewBox="0 0 162 59" fill="none" xmlns="http://www.w3.org/2000/svg">
<path d="M16.635 13.5C19.7016 13.5 22.4016 13.9833 24.735 14.95C27.1016 15.8833 29.1516 17.2667 30.885 19.1L26.735 24.65C25.3016 23.15 23.7516 22.0333 22.085 21.3C20.4516 20.5333 18.585 20.15 16.485 20.15C15.2516 20.15 14.2516 20.2833 13.485 20.55C12.7183 20.8167 12.1683 21.1833 11.835 21.65C11.5016 22.1167 11.335 22.65 11.335 23.25C11.335 23.95 11.6516 24.55 12.285 25.05C12.9516 25.5167 14.0183 25.9167 15.485 26.25L21.035 27.5C24.335 28.2667 26.7516 29.3833 28.285 30.85C29.8183 32.3167 30.585 34.2667 30.585 36.7C30.585 39.0333 29.985 41.0167 28.785 42.65C27.585 44.25 25.935 45.4667 23.835 46.3C21.735 47.1 19.335 47.5 16.635 47.5C14.435 47.5 12.335 47.2667 10.335 46.8C8.33496 46.3 6.53496 45.6 4.93496 44.7C3.33496 43.8 1.98496 42.7667 0.884961 41.6L5.03496 35.85C5.86829 36.8167 6.88496 37.6833 8.08496 38.45C9.31829 39.1833 10.6516 39.7667 12.085 40.2C13.5516 40.6333 15.035 40.85 16.535 40.85C17.7016 40.85 18.6683 40.7333 19.435 40.5C20.235 40.2667 20.8183 39.9167 21.185 39.45C21.5516 38.9833 21.735 38.4333 21.735 37.8C21.735 37.1 21.485 36.5167 20.985 36.05C20.485 35.55 19.535 35.1333 18.135 34.8L12.035 33.45C10.1683 33.0167 8.50163 32.45 7.03496 31.75C5.60163 31.0167 4.46829 30.05 3.63496 28.85C2.80163 27.6167 2.38496 26.0833 2.38496 24.25C2.38496 22.1833 2.95163 20.35 4.08496 18.75C5.21829 17.1167 6.85163 15.8333 8.98496 14.9C11.1183 13.9667 13.6683 13.5 16.635 13.5ZM34.2639 47V22H41.8639L42.1139 26.85C42.9139 25.0833 44.0305 23.75 45.4639 22.85C46.9305 21.95 48.6139 21.5 50.5139 21.5C52.3805 21.5 53.9972 21.9167 55.3639 22.75C56.7305 23.5833 57.7472 24.8167 58.4139 26.45C58.9472 25.35 59.6305 24.4333 60.4639 23.7C61.3305 22.9667 62.3139 22.4167 63.4139 22.05C64.5139 21.6833 65.6472 21.5 66.8139 21.5C68.4805 21.5 69.9472 21.8333 71.2139 22.5C72.4805 23.1333 73.4805 24.1167 74.2139 25.45C74.9805 26.75 75.3639 28.3833 75.3639 30.35V47H66.8639V32.3C66.8639 30.7 66.5472 29.5833 65.9139 28.95C65.3139 28.3167 64.4972 28 63.4639 28C62.6305 28 61.8639 28.2167 61.1639 28.65C60.4972 29.05 59.9805 29.6667 59.6139 30.5C59.2472 31.3333 59.0639 32.3833 59.0639 33.65V47H50.5639V32.3C50.5639 30.7 50.2472 29.5833 49.6139 28.95C48.9805 28.3167 48.1639 28 47.1639 28C46.3972 28 45.6639 28.2 44.9639 28.6C44.2972 29 43.7639 29.6333 43.3639 30.5C42.9639 31.3333 42.7639 32.4333 42.7639 33.8V47H34.2639ZM108.289 47V22H115.789L116.139 27.4C116.773 25.5333 117.706 24.0833 118.939 23.05C120.206 22.0167 121.806 21.5 123.739 21.5C124.373 21.5 124.906 21.55 125.339 21.65C125.806 21.75 126.173 21.8833 126.439 22.05L125.589 29.05C125.256 28.9167 124.823 28.8167 124.289 28.75C123.789 28.65 123.173 28.6 122.439 28.6C121.439 28.6 120.506 28.8167 119.639 29.25C118.773 29.6833 118.073 30.3333 117.539 31.2C117.039 32.0333 116.789 33.1 116.789 34.4V47H108.289ZM138.589 14.05V38.1C138.589 39.3 138.872 40.1667 139.439 40.7C140.039 41.2 140.856 41.45 141.889 41.45C142.689 41.45 143.372 41.3667 143.939 41.2C144.539 41 145.072 40.7167 145.539 40.35L146.439 45.6C145.606 46.2 144.556 46.6667 143.289 47C142.022 47.3333 140.722 47.5 139.389 47.5C137.489 47.5 135.839 47.2333 134.439 46.7C133.072 46.1667 132.006 45.3167 131.239 44.15C130.506 42.9833 130.122 41.4333 130.089 39.5V16.4L138.589 14.05ZM146.039 22V28.05H125.789V22H146.039Z" fill="#231F20"/>
<path d="M94.2842 31.15C94.2842 29.9833 93.9508 29.0667 93.2842 28.4C92.6508 27.7 91.7842 27.35 90.6842 27.35C89.5842 27.35 88.6342 27.6333 87.8342 28.2C87.0675 28.7333 86.5342 29.7 86.2342 31.1L79.0342 29.4C79.5008 27 80.7342 25.0833 82.7342 23.65C84.7342 22.2167 87.5508 21.5 91.1842 21.5C93.6175 21.5 95.6842 21.8667 97.3842 22.6C99.1175 23.3 100.434 24.3667 101.334 25.8C102.268 27.2 102.734 28.9333 102.734 31V40.15C102.734 41.45 103.318 42.1 104.484 42.1C105.084 42.1 105.568 42.0333 105.934 41.9L105.434 46.75C104.434 47.2167 103.218 47.45 101.784 47.45C100.484 47.45 99.3342 47.25 98.3342 46.85C97.3342 46.4167 96.5508 45.7833 95.9842 44.95C95.4175 44.0833 95.1342 43 95.1342 41.7V41.4L96.0842 41.05C96.0842 42.4833 95.6508 43.6833 94.7842 44.65C93.9508 45.6167 92.8508 46.3333 91.4842 46.8C90.1508 47.2667 88.7508 47.5 87.2842 47.5C85.5842 47.5 84.1008 47.2333 82.8342 46.7C81.5675 46.1667 80.5842 45.4 79.8842 44.4C79.2175 43.3667 78.8842 42.1 78.8842 40.6C78.8842 38.8 79.4175 37.3167 80.4842 36.15C81.5842 34.95 83.3008 34.1167 85.6342 33.65L95.0842 31.7L95.0342 36.2L90.2342 37.2C89.2342 37.4 88.4842 37.7 87.9842 38.1C87.5175 38.4667 87.2842 39.0333 87.2842 39.8C87.2842 40.5333 87.5508 41.0833 88.0842 41.45C88.6175 41.8167 89.2508 42 89.9842 42C90.5508 42 91.0842 41.9167 91.5842 41.75C92.1175 41.5833 92.5842 41.3333 92.9842 41C93.3842 40.6333 93.7008 40.1833 93.9342 39.65C94.1675 39.1167 94.2842 38.4833 94.2842 37.75V31.15Z" fill="#20B461"/>
<path d="M73 8H141.503C146.697 8 151.587 10.4459 154.703 14.6017V14.6017C156.843 17.4567 158 20.9288 158 24.497V33" stroke="#5D4E8E" stroke-width="7"/>
<path d="M73 55H141.898C146.856 55 151.537 52.7159 154.589 48.8082V48.8082C156.799 45.9776 158 42.4892 158 38.8977V31" stroke="#5D4E8E" stroke-width="7"/>
</svg>
